# xmcd
#
# Track frame offsets:
#	150
#	13107
#	31094
#	46279
#	63148
#	78894
#	94452
#	109345
#	124881
#	139073
#	172724
#
# Disc length: 2510 seconds
#
# Revision: 0
# Processed by: cddbd v1.4PL0 Copyright (c) Steve Scherf et al.
# Submitted via: EZCDDA 4.3.3.2
#
DISCID=8609cc0b
DTITLE=Various Artist - The Best Of Swing N' Jive - Swing Street Romp
DYEAR=1900
DGENRE=
TTITLE0=Jump Jive An' Wail
TTITLE1=Isfahan
TTITLE2=Zweet Zursday
TTITLE3=UMMG
TTITLE4=Azure
TTITLE5=Why Don't You Do Right
TTITLE6=Sugar Rum Cherry
TTITLE7=Clarinet Lament
TTITLE8=Dark Eyes
TTITLE9=Mount Harrissa
TTITLE10=In The Mood
EXTD=
EXTT0=
EXTT1=
EXTT2=
EXTT3=
EXTT4=
EXTT5=
EXTT6=
EXTT7=
EXTT8=
EXTT9=
EXTT10=
PLAYORDER=
